<svg xmlns="http://www.w3.org/2000/svg" viewBox="0 0 280.22 280.22">
    <path
      fill="#efc75e"
      d="M35.1 96.45h210.02a17.5 17.5 0 0 1 17.5 17.5v148.77a17.5 17.5 0 0 1-17.5 17.5H35.1a17.5 17.5 0 0 1-17.5-17.5V113.95a17.5 17.5 0 0 1 17.5-17.5z"
    />
    <path
      fill="#d7b354"
      d="M245.12 96.45H35.1a17.5 17.5 0 0 0-17.5 17.5v17.5a17.5 17.5 0 0 0 17.5 17.5h210.02a17.5 17.5 0 0 0 17.5-17.5v-17.5a17.5 17.5 0 0 0-17.5-17.5z"
    />
    <path
      fill="#b29446"
      d="M70.1 105.2c-14.5 0-26.25 7.84-26.25 17.5 0 9.67 11.75 17.5 26.25 17.5s26.26-7.82 26.26-17.5-11.76-17.5-26.26-17.5zm140.02 0c-14.5 0-26.26 7.84-26.26 17.5 0 9.67 11.77 17.5 26.26 17.5 14.5 0 26.25-7.82 26.25-17.5s-11.75-17.5-26.25-17.5z"
    />
    <path
      fill="#d1d5d7"
      d="M140.11 0a87.52 87.52 0 0 0-87.5 87.53v35.36c0 4.84 7.83 8.75 17.5 8.75s17.5-3.91 17.5-8.75V85c0-27.61 23.51-49.99 52.5-49.99 29 0 52.5 22.38 52.5 50v37.87c0 4.84 7.85 8.75 17.5 8.75s17.51-3.91 17.51-8.75V87.53A87.52 87.52 0 0 0 140.12 0z"
    />
    <path
      fill="#dadddf"
      d="M140.11 17.5c-48.33 0-70 39.2-70 87.53v26.6c9.65 0 17.5-3.9 17.5-8.74V85c0-27.61 23.51-49.99 52.5-49.99 29 0 52.5 22.38 52.5 50v37.87c0 4.84 7.85 8.75 17.5 8.75v-26.61c0-48.33-21.67-87.53-70-87.53z"
    />
  </svg>